<svg width="189" height="36" viewBox="0 0 189 36" fill="none" xmlns="http://www.w3.org/2000/svg">
<g clip-path="url(#clip0)">
<path d="M11.9521 32.8078C11.9521 33.5349 11.9521 34.2088 11.9521 35.0246C8.50197 35.0246 5.57992 33.7477 3.30918 31.2118C0.017477 27.5408 -0.915465 23.2314 0.932817 18.6383C3.16836 13.0166 7.60423 10.6934 13.5715 10.924C14.0644 7.27076 15.7015 4.2737 18.7291 2.14561C20.9119 0.602743 23.3762 -0.10662 26.0342 -0.000215895C31.4735 0.230327 36.6487 4.16729 37.564 10.9417C42.3519 10.6048 46.2949 12.254 49.0409 16.3329C50.854 19.0107 51.4173 22.0255 50.8364 25.2177C49.7979 30.8748 43.989 35.734 39.1834 34.9182C39.1834 34.2443 39.1834 33.5527 39.1834 32.7724C42.5456 32.5241 45.274 31.1408 47.1575 28.2679C48.5305 26.1753 48.9881 23.8521 48.5833 21.4048C48.0728 18.3368 46.4357 16.0137 43.7425 14.4708C41.0493 12.9279 38.2153 12.9279 35.1876 13.921C35.5045 10.1437 34.5539 6.93381 31.6671 4.53971C29.8892 3.05005 27.8297 2.32295 25.5062 2.34068C22.5137 2.37615 20.0493 3.56433 18.113 5.85203C16.1943 8.15746 15.6663 10.8885 15.9127 13.9388C12.3218 12.7683 9.04765 13.0521 6.12561 15.3398C4.06609 16.9536 2.8163 19.0994 2.49946 21.7063C1.81295 27.062 5.4215 32.3113 11.9521 32.8078Z" fill="white"/>
<path d="M178.526 13.283C178.526 15.8544 178.526 18.2662 178.526 20.8554C179.688 19.8091 180.885 19.2416 182.258 19.1352C185.198 18.9401 187.609 20.6071 188.49 23.551C189.194 25.9274 189.194 28.3392 188.437 30.6978C187.187 34.5993 182.751 36.089 179.371 33.8013C179.143 33.6417 178.896 33.4821 178.579 33.2515C178.526 33.6772 178.491 34.0141 178.456 34.422C177.717 34.422 176.977 34.422 176.132 34.422C176.132 34.0318 176.132 33.6949 176.132 33.3402C176.132 27.3993 176.15 21.4761 176.115 15.5352C176.115 14.6485 176.361 14.1697 177.171 13.9037C177.558 13.7972 177.946 13.549 178.526 13.283ZM178.491 26.885C178.491 27.8958 178.456 28.889 178.509 29.8998C178.526 30.2545 178.632 30.6624 178.861 30.9461C179.97 32.3471 181.466 32.8082 183.174 32.5422C184.758 32.2939 185.673 31.2299 186.131 29.7402C186.624 28.1619 186.624 26.5481 186.324 24.9343C186.043 23.3737 185.356 22.0613 183.737 21.547C182.029 21.015 180.463 21.3697 179.195 22.6288C178.826 23.0012 178.579 23.6219 178.526 24.154C178.421 25.0584 178.491 25.9806 178.491 26.885Z" fill="white"/>
<path d="M153.865 34.4397C153.091 34.4397 152.404 34.4397 151.612 34.4397C151.577 34.085 151.542 33.7481 151.542 33.4111C151.542 30.9284 151.506 28.4456 151.559 25.9628C151.577 25.1293 151.295 24.9165 150.503 24.9343C148.655 24.9875 146.806 24.9875 144.958 24.9343C144.166 24.9165 143.972 25.1825 143.99 25.9451C144.025 28.4279 144.008 30.9106 144.008 33.3934C144.008 33.7126 144.008 34.0318 144.008 34.422C143.198 34.422 142.459 34.422 141.666 34.422C141.666 27.6298 141.666 20.8554 141.666 13.9923C142.423 13.9923 143.163 13.9923 144.008 13.9923C144.008 15.145 144.008 16.2446 144.008 17.3618C144.008 18.9047 143.99 20.4298 144.025 21.9727C144.025 22.2032 144.307 22.6288 144.465 22.6288C146.771 22.6643 149.095 22.6643 151.471 22.6643C151.489 22.2387 151.524 21.9017 151.542 21.547C151.542 19.2948 151.559 17.0603 151.524 14.8081C151.506 14.0987 151.77 13.8327 152.439 13.9037C152.703 13.9391 152.967 13.9214 153.231 13.9037C153.707 13.8682 153.953 14.0633 153.918 14.5598C153.9 14.7017 153.918 14.8613 153.918 15.0032C153.918 21.1569 153.918 27.2929 153.918 33.4466C153.918 33.7658 153.883 34.085 153.865 34.4397Z" fill="white"/>
<path d="M60.5004 30.3255C61.2221 30.0595 61.9086 29.8112 62.6303 29.5452C62.8064 29.8289 62.9472 30.0772 63.1056 30.3255C64.0386 31.7442 65.2884 32.5954 67.0486 32.5954C68.4392 32.5954 69.6186 32.1344 70.2347 30.822C70.886 29.421 70.8332 27.9491 69.7066 26.8673C68.7561 25.9452 67.5591 25.289 66.4149 24.5619C65.306 23.8525 64.0738 23.3382 63.0176 22.5579C61.2397 21.2456 60.6412 19.0998 61.2749 17.0249C61.8558 15.1451 63.6513 13.7796 65.7636 13.6022C67.4711 13.4604 69.1609 13.6022 70.4811 14.7904C71.1148 15.3579 71.5021 16.1914 71.995 16.9008C71.3437 17.2377 70.6924 17.5747 70.0059 17.9293C69.2666 16.688 68.3336 15.9077 66.9606 15.7658C65.4644 15.6062 64.1442 16.2801 63.7041 17.4683C63.1936 18.7983 63.6337 20.0752 65.0067 20.9619C65.8164 21.4762 66.7142 21.8663 67.5591 22.3451C68.6681 22.9836 69.8298 23.5865 70.8508 24.3668C73.0335 26.0338 73.4736 28.357 72.8047 30.893C72.171 33.2693 70.3755 34.3866 68.052 34.7767C64.7427 35.291 61.4158 33.3757 60.5004 30.3255Z" fill="white"/>
<path d="M104.331 31.4781C104.736 31.9392 105.158 32.418 105.563 32.8791C102.712 36.0889 96.9908 35.2909 94.9488 31.4071C93.4174 28.5165 93.4526 25.484 94.8432 22.5401C96.1282 19.8268 99.1207 18.6031 102.324 19.2948C104.877 19.8445 106.69 22.1145 106.848 25.0229C106.901 25.945 106.848 26.8849 106.848 27.8958C103.345 27.8958 99.9128 27.8958 96.3923 27.8958C96.5507 29.616 97.114 31.017 98.4694 31.9746C99.8952 33.0032 101.567 32.8436 104.331 31.4781ZM96.3571 25.7677C99.0855 25.7677 101.761 25.7677 104.437 25.7677C104.63 23.1785 103.169 21.3874 100.846 21.2632C98.2582 21.1214 96.4627 22.8948 96.3571 25.7677Z" fill="white"/>
<path d="M79.7754 34.4398C78.9656 34.4398 78.2967 34.4398 77.5222 34.4398C77.5046 34.0674 77.4518 33.695 77.4518 33.3226C77.4518 27.4171 77.4694 21.4939 77.4166 15.5885C77.4166 14.6486 77.663 14.0988 78.5608 13.8328C78.9128 13.7264 79.2473 13.5313 79.7578 13.3008C79.7578 15.89 79.7578 18.355 79.7578 20.8378C80.9723 19.7383 82.2573 19.153 83.8064 19.1176C87.0101 19.0644 89.0168 20.5186 89.2984 23.8171C89.5976 27.293 89.3688 30.8221 89.3688 34.4753C88.7879 34.4753 88.1718 34.5462 87.5909 34.4398C87.3797 34.4043 87.1333 33.9078 87.1333 33.624C87.0981 31.1413 87.1333 28.6585 87.0981 26.1757C87.0981 25.4132 87.0805 24.6329 86.9044 23.888C86.482 22.0437 85.1442 21.2102 83.0494 21.3521C81.2892 21.4762 80.0394 22.558 79.9338 24.3491C79.793 26.4772 79.8282 28.6053 79.793 30.7334C79.7578 31.9393 79.7754 33.1452 79.7754 34.4398Z" fill="white"/>
<path d="M168.616 19.5432C171.01 19.3126 171.01 19.3126 171.01 21.5471C171.01 25.4486 171.01 29.3501 171.01 33.2516C171.01 34.493 171.01 34.493 169.778 34.493C169.426 34.493 169.074 34.493 168.669 34.493C168.616 34.0496 168.563 33.6595 168.493 33.1275C166.944 34.759 165.113 35.0782 163.106 34.7058C161.135 34.3511 159.92 33.1807 159.392 31.2654C159.251 30.7334 159.075 30.1659 159.075 29.6161C159.04 26.2821 159.058 22.9481 159.058 19.5432C159.832 19.5432 160.572 19.5432 161.417 19.5432C161.417 19.8801 161.417 20.1816 161.417 20.5008C161.417 23.2851 161.381 26.0516 161.434 28.8358C161.487 31.6733 163.529 33.1807 166.187 32.4004C167.595 31.9925 168.493 30.822 168.528 29.1196C168.598 26.2821 168.563 23.4447 168.581 20.6072C168.581 20.288 168.598 19.9333 168.616 19.5432Z" fill="white"/>
<path d="M121.353 34.4575C117.762 34.4575 114.241 34.4575 110.668 34.4575C110.668 33.8014 110.668 33.163 110.668 32.3649C111.742 32.3649 112.816 32.3295 113.872 32.3827C114.611 32.4181 114.822 32.1521 114.822 31.425C114.787 26.3708 114.805 21.3166 114.822 16.2624C114.822 15.5707 114.629 15.287 113.925 15.3579C113.555 15.3934 113.168 15.3579 112.78 15.3579C110.932 15.3579 110.791 15.2515 110.246 13.3008C112.534 13.3008 114.805 13.3008 117.199 13.3008C117.199 13.6909 117.199 14.0279 117.199 14.3648C117.199 20.0397 117.216 25.7146 117.181 31.3895C117.181 32.1876 117.41 32.4181 118.184 32.3827C119.223 32.3295 120.279 32.3649 121.371 32.3649C121.353 33.1275 121.353 33.7837 121.353 34.4575Z" fill="white"/>
<path d="M137.09 34.4398C133.446 34.4398 129.908 34.4398 126.334 34.4398C126.334 33.7659 126.334 33.1275 126.334 32.3649C127.443 32.3649 128.517 32.3295 129.591 32.3827C130.242 32.4004 130.524 32.2231 130.506 31.496C130.471 26.424 130.471 21.3343 130.506 16.2446C130.506 15.5353 130.277 15.287 129.591 15.3579C129.221 15.3934 128.834 15.3579 128.447 15.3579C126.598 15.3579 126.493 15.2693 125.93 13.3008C128.2 13.3008 130.471 13.3008 132.865 13.3008C132.865 13.6909 132.865 14.0456 132.865 14.3826C132.865 19.9688 132.865 25.555 132.865 31.1235C132.865 32.3472 132.865 32.3472 134.115 32.3472C134.854 32.3472 135.576 32.3827 136.315 32.3295C136.949 32.294 137.16 32.5423 137.107 33.1452C137.054 33.5886 137.09 33.9965 137.09 34.4398Z" fill="white"/>
<path d="M17.8843 35.0071C17.2858 34.4928 16.7226 34.0317 16.0889 33.5174C17.1274 32.2583 18.1308 31.0346 19.1341 29.811C19.7502 29.0662 20.3487 28.2859 21 27.5765C21.4225 27.1154 21.4401 26.8139 21.0352 26.3174C19.451 24.3844 17.9019 22.4159 16.3001 20.3942C16.8986 19.9154 17.4443 19.4543 18.166 18.8513C18.2716 19.0287 18.342 19.2237 18.4652 19.3833C20.1903 21.5469 21.9154 23.7105 23.6404 25.874C24.3445 26.7607 24.3445 27.1686 23.6228 28.0553C21.7393 30.343 19.8382 32.6662 17.8843 35.0071Z" fill="white"/>
<path d="M33.7443 32.8082C33.7443 33.5531 33.7443 34.2447 33.7443 34.9895C30.9103 34.9895 28.1114 34.9895 25.2774 34.9895C25.2774 34.2447 25.2774 33.5531 25.2774 32.8082C28.1114 32.8082 30.9103 32.8082 33.7443 32.8082Z" fill="white"/>
</g>
<defs>
<clipPath id="clip0">
<rect width="189" height="35.0426" fill="white"/>
</clipPath>
</defs>
</svg>
